<?xml version="1.0" standalone="no"?>
<!DOCTYPE svg PUBLIC "-//W3C//DTD SVG 20010904//EN"
 "http://www.w3.org/TR/2001/REC-SVG-20010904/DTD/svg10.dtd">
<svg version="1.0" xmlns="http://www.w3.org/2000/svg"
 width="857.000000pt" height="857.000000pt" viewBox="0 0 857.000000 857.000000"
 preserveAspectRatio="xMidYMid meet">
<metadata>
Created by potrace 1.11, written by Peter Selinger 2001-2013
</metadata>
<g transform="translate(0.000000,857.000000) scale(0.100000,-0.100000)"
fill="#000000" stroke="none">
<path d="M4218 7155 c-2 -2 -21 -6 -43 -9 -55 -8 -63 -10 -122 -30 -68 -23
-160 -73 -173 -94 -5 -9 -10 -14 -10 -9 0 4 -14 -5 -31 -20 -51 -44 -104 -105
-101 -114 1 -5 -2 -9 -7 -9 -13 0 -62 -79 -56 -90 3 -6 1 -10 -4 -10 -6 0 -11
-7 -11 -15 0 -8 -5 -15 -11 -15 -6 0 -9 -6 -6 -14 3 -8 -1 -20 -9 -27 -8 -6
-12 -14 -10 -16 3 -3 1 -16 -5 -30 -22 -59 -31 -240 -15 -313 4 -19 9 -42 11
-50 2 -8 4 -15 5 -15 1 0 3 -10 6 -22 7 -37 73 -165 107 -208 46 -56 129 -135
138 -130 4 3 9 -2 13 -10 8 -21 180 -100 256 -117 64 -14 203 -16 270 -4 63
12 140 39 140 49 0 6 3 7 6 4 8 -8 124 52 124 64 0 5 6 8 13 6 6 -1 11 4 9 11
-1 8 2 11 7 8 5 -3 21 9 37 26 15 18 28 31 30 28 1 -3 13 9 25 25 13 17 29 34
36 38 7 4 13 14 13 21 0 8 7 19 15 26 8 7 12 16 9 21 -3 5 -1 9 4 9 9 0 56 95
57 115 0 6 3 12 7 15 14 11 35 163 32 237 -5 112 -11 138 -51 242 -34 89 -128
220 -177 248 -12 7 -17 12 -12 13 6 0 1 6 -9 14 -11 8 -23 12 -26 10 -4 -2
-10 3 -13 12 -3 8 -10 12 -16 9 -5 -3 -10 -1 -10 5 0 5 -17 18 -37 28 -21 9
-41 21 -45 26 -3 5 -14 10 -25 11 -10 1 -31 7 -47 14 -52 21 -120 33 -202 37
-45 1 -84 1 -86 -1z"/>
<path d="M1870 6019 c0 -4 8 -13 18 -18 9 -6 13 -11 9 -11 -9 0 52 -93 65 -98
4 -2 8 -8 8 -14 0 -6 20 -39 45 -74 25 -34 45 -67 45 -72 0 -6 3 -12 8 -14 4
-1 47 -64 97 -138 49 -74 93 -136 97 -138 4 -2 8 -10 8 -18 0 -8 6 -17 14 -20
8 -3 17 -17 20 -30 4 -14 11 -22 17 -19 5 4 8 2 7 -3 -3 -11 16 -43 42 -72 8
-9 16 -23 18 -31 2 -8 11 -21 20 -29 9 -9 18 -22 20 -29 1 -7 9 -19 17 -27 7
-8 17 -23 20 -34 4 -11 11 -18 16 -15 5 4 9 -3 9 -14 0 -12 5 -21 10 -21 6 0
10 -7 10 -15 0 -9 7 -18 15 -21 8 -4 15 -12 15 -20 0 -8 5 -14 11 -14 5 0 7
-4 4 -10 -3 -5 -2 -10 3 -10 5 0 17 -16 26 -35 9 -19 22 -40 29 -47 19 -19 97
-139 97 -148 0 -5 4 -10 8 -12 10 -4 132 -187 132 -198 0 -5 4 -10 8 -12 5 -1
35 -43 67 -93 32 -49 68 -98 79 -108 12 -10 15 -15 7 -11 -14 7 35 -64 52 -77
5 -3 9 -10 10 -15 0 -5 48 -80 106 -167 58 -87 117 -176 131 -197 42 -66 85
-125 93 -128 4 -2 7 -10 7 -18 0 -8 7 -17 15 -20 8 -4 13 -10 10 -14 -3 -5 2
-13 11 -18 9 -5 16 -13 16 -18 0 -16 80 -134 91 -134 6 0 7 -3 4 -6 -7 -7 70
-124 89 -136 8 -5 11 -269 12 -900 0 -491 1 -897 1 -903 1 -15 1240 -13 1249
2 4 6 7 408 6 893 l0 882 43 64 c23 35 41 64 38 64 -2 0 7 12 21 27 13 14 22
28 20 30 -2 2 7 16 20 30 13 14 21 29 18 34 -3 5 -1 9 4 9 8 0 71 91 74 107 1
4 12 19 25 33 13 14 26 33 29 43 3 9 10 17 15 17 5 0 9 5 9 11 0 6 20 39 45
73 24 35 42 66 38 70 -3 3 -1 6 6 6 6 0 16 11 21 25 5 14 14 25 20 25 5 0 10
6 10 14 0 7 7 19 15 26 8 7 12 16 9 21 -3 5 -1 9 4 9 9 0 73 93 73 107 0 4 7
12 15 16 8 4 14 13 14 20 1 7 14 27 30 46 16 19 27 38 25 42 -3 4 2 9 10 13 8
3 15 12 15 21 0 8 4 15 8 15 9 0 47 62 44 73 -1 4 3 7 8 7 6 0 15 11 20 25 5
14 14 25 20 25 5 0 10 6 10 14 0 7 7 19 15 26 8 7 13 16 10 20 -3 4 2 10 10
14 8 3 15 10 15 16 0 6 9 20 20 32 10 12 17 25 14 30 -3 4 -1 8 4 8 9 0 93
123 93 137 0 4 7 12 15 16 8 4 14 15 14 22 0 8 4 15 8 15 5 0 18 17 30 38 11
21 30 48 41 61 11 13 18 28 15 32 -3 5 -1 9 5 9 11 0 57 71 53 83 -1 4 2 7 7
7 10 0 84 110 74 110 -5 0 -3 4 3 8 21 15 83 105 78 113 -3 5 -1 9 4 9 5 0 26
25 46 55 20 30 33 55 30 55 -4 0 3 8 14 19 12 10 22 22 22 26 0 4 11 21 25 37
14 16 23 34 19 39 -3 5 -1 9 5 9 5 0 24 23 41 52 18 28 38 58 46 65 8 8 12 19
9 24 -4 5 -2 9 4 9 6 0 17 13 26 29 8 16 21 36 29 44 9 8 17 21 18 28 2 8 11
20 21 27 9 7 17 19 17 27 0 7 6 20 14 28 14 14 86 123 86 130 0 2 -304 4 -675
4 -572 0 -675 -2 -675 -14 0 -8 -4 -11 -10 -8 -5 3 -10 0 -10 -7 0 -7 -16 -37
-35 -67 -19 -29 -35 -57 -35 -62 0 -5 -4 -9 -10 -9 -5 0 -10 -6 -10 -14 0 -8
-7 -22 -16 -30 -8 -9 -13 -16 -9 -16 4 0 -1 -7 -9 -16 -9 -8 -14 -19 -11 -24
3 -4 -1 -10 -8 -13 -6 -3 -21 -22 -32 -43 -10 -22 -32 -58 -47 -81 -15 -23
-28 -45 -28 -49 0 -4 -12 -23 -27 -42 -15 -20 -20 -32 -12 -28 8 4 5 0 -5 -8
-11 -9 -16 -16 -10 -16 5 0 1 -5 -9 -11 -9 -6 -15 -14 -12 -20 4 -5 2 -9 -3
-9 -9 0 -37 -50 -34 -62 1 -5 -3 -8 -10 -8 -6 0 -8 -3 -5 -7 4 -3 1 -11 -7
-17 -8 -6 -25 -31 -39 -56 -13 -25 -48 -83 -76 -129 -29 -46 -53 -89 -54 -95
-1 -6 -4 -13 -8 -16 -15 -14 -72 -107 -72 -117 0 -7 -4 -13 -8 -13 -3 0 -14
-15 -24 -32 -23 -46 -37 -69 -61 -103 -19 -27 -33 -57 -34 -70 0 -3 -7 -13
-16 -22 -29 -32 -83 -126 -78 -135 3 -4 1 -8 -5 -8 -10 0 -45 -56 -39 -63 2
-1 -7 -13 -19 -27 -13 -13 -23 -30 -23 -37 0 -7 -5 -13 -11 -13 -5 0 -7 -4 -4
-10 3 -5 1 -10 -6 -10 -7 0 -10 -3 -6 -6 3 -3 -3 -16 -14 -28 -11 -11 -27 -36
-36 -53 -8 -18 -19 -33 -23 -33 -4 0 -17 20 -30 45 -13 25 -26 45 -30 45 -5 0
-11 11 -14 25 -4 14 -15 34 -26 45 -11 11 -20 22 -20 25 0 13 -35 75 -42 75
-4 0 -8 6 -8 14 0 7 -8 24 -18 37 -10 13 -30 44 -43 69 -13 25 -27 47 -30 50
-5 4 -30 47 -64 111 -5 11 -13 19 -17 19 -5 0 -8 5 -8 10 0 12 -51 92 -65 102
-5 4 -6 8 -2 8 5 0 -1 13 -12 29 -12 16 -21 34 -21 40 0 6 -4 11 -9 11 -5 0
-11 8 -15 18 -3 9 -17 35 -31 57 -14 22 -30 50 -35 63 -5 12 -15 22 -21 22 -7
0 -10 3 -6 6 6 7 -70 134 -88 146 -5 4 -6 8 -2 8 5 0 -1 13 -12 29 -12 16 -21
32 -21 35 0 3 -17 32 -37 63 -21 32 -43 70 -50 86 -7 15 -17 27 -23 27 -5 0
-9 3 -9 8 3 18 -2 33 -9 28 -5 -3 -9 0 -9 7 -1 20 -49 98 -56 90 -4 -3 -7 3
-7 14 0 11 -9 32 -20 46 -11 14 -20 28 -20 32 0 3 -13 26 -30 50 -17 24 -30
48 -30 54 0 6 -4 11 -10 11 -5 0 -10 5 -10 10 0 6 -11 28 -25 49 l-25 38 -675
0 c-371 0 -675 -4 -675 -8z"/>
</g>
</svg>
